<svg width="41" height="40" viewBox="0 0 41 40" fill="none" xmlns="http://www.w3.org/2000/svg">
<path d="M0.5 4C0.5 1.79086 2.29086 0 4.5 0H36.5C38.7091 0 40.5 1.79086 40.5 4V36C40.5 38.2091 38.7091 40 36.5 40H4.5C2.29086 40 0.5 38.2091 0.5 36V4Z" fill="#04B19E"/>
<path fill-rule="evenodd" clip-rule="evenodd" d="M9.5 10.5C8.94771 10.5 8.5 10.9477 8.5 11.5C8.5 12.0523 8.94771 12.5 9.5 12.5H11.1812C11.5812 12.5 11.9428 12.7384 12.1003 13.1061L16.9416 24.4023C17.5004 25.7063 18.8963 26.4405 20.2874 26.1623L27.558 24.7082C28.6137 24.4971 29.4753 23.7365 29.8157 22.7151L31.5712 17.4487C32.2187 15.5061 30.7728 13.5 28.7251 13.5H14.4451L13.9386 12.3182C13.4659 11.2152 12.3813 10.5 11.1812 10.5H9.5ZM18.7799 23.6145L15.3022 15.5H28.7251C29.4077 15.5 29.8897 16.1687 29.6738 16.8162L27.9183 22.0827C27.8049 22.4231 27.5177 22.6767 27.1658 22.747L19.8952 24.2012C19.4315 24.2939 18.9662 24.0492 18.7799 23.6145Z" fill="white"/>
<path d="M19.5 30.5C19.5 31.6046 18.6046 32.5 17.5 32.5C16.3954 32.5 15.5 31.6046 15.5 30.5C15.5 29.3954 16.3954 28.5 17.5 28.5C18.6046 28.5 19.5 29.3954 19.5 30.5Z" fill="white"/>
<path d="M29.5 30.5C29.5 31.6046 28.6046 32.5 27.5 32.5C26.3954 32.5 25.5 31.6046 25.5 30.5C25.5 29.3954 26.3954 28.5 27.5 28.5C28.6046 28.5 29.5 29.3954 29.5 30.5Z" fill="white"/>
<circle cx="28.5" cy="14.5" r="5.25" fill="white" stroke="#04B19E" stroke-width="1.5"/>
<path d="M30.5 13.5L27.75 15.5L26.5 14.5909" stroke="#04B19E" stroke-width="1.5" stroke-linecap="round" stroke-linejoin="round"/>
</svg>
