<svg width="20" height="20" viewBox="0 0 20 20" fill="none" xmlns="http://www.w3.org/2000/svg">
<g clip-path="url(#clip0)">
<path fill-rule="evenodd" clip-rule="evenodd" d="M1.1999 2C0.758074 2 0.399902 2.35818 0.399902 2.8C0.399902 3.24182 0.758074 3.6 1.1999 3.6H2.54487C2.86489 3.6 3.15412 3.79072 3.28018 4.08486L7.15319 13.1218C7.60025 14.165 8.71694 14.7524 9.82982 14.5298L15.6463 13.3666C16.4909 13.1977 17.1801 12.5892 17.4525 11.7721L18.8569 7.55894C19.3749 6.00487 18.2181 4.4 16.58 4.4H5.15599L4.75081 3.45459C4.37263 2.57215 3.50493 2 2.54487 2H1.1999ZM8.62382 12.4916L5.8417 6H16.58C17.1261 6 17.5117 6.53496 17.3389 7.05298L15.9345 11.2662C15.8438 11.5385 15.6141 11.7414 15.3325 11.7976L9.51606 12.961C9.1451 13.0351 8.77286 12.8394 8.62382 12.4916Z" fill="#4E4C4C"/>
<path d="M9.2 18C9.2 18.8837 8.48368 19.6 7.6 19.6C6.71634 19.6 6 18.8837 6 18C6 17.1163 6.71634 16.4 7.6 16.4C8.48368 16.4 9.2 17.1163 9.2 18Z" fill="#4E4C4C"/>
<path d="M17.2 18C17.2 18.8837 16.4837 19.6 15.6 19.6C14.7163 19.6 14 18.8837 14 18C14 17.1163 14.7163 16.4 15.6 16.4C16.4837 16.4 17.2 17.1163 17.2 18Z" fill="#4E4C4C"/>
</g>
<defs>
<clipPath id="clip0">
<rect width="19.2" height="19.2" fill="white" transform="translate(0.399902 0.400024)"/>
</clipPath>
</defs>
</svg>
