<svg width="194" height="40" viewBox="0 0 194 40" fill="none" xmlns="http://www.w3.org/2000/svg">
<g clip-path="url(#clip0)">
<path fill-rule="evenodd" clip-rule="evenodd" d="M14.5011 17.4177L8.99621 22.9015L14.5011 28.3853L20.006 22.9015L14.5011 17.4177ZM3.16748 22.9015L14.5011 34.1917L25.8348 22.9015L14.5011 11.6113L3.16748 22.9015Z" fill="#66B1F1"/>
<path fill-rule="evenodd" clip-rule="evenodd" d="M14.5007 5.80573L6.08142 14.1927L14.5007 22.5798L22.92 14.1927L14.5007 5.80573ZM0.252686 14.1927L14.5007 28.3862L28.7487 14.1927L14.5007 -0.000675574L0.252686 14.1927Z" fill="#1C629E"/>
<path fill-rule="evenodd" clip-rule="evenodd" d="M14.4977 28.3825L11.5834 31.2857L14.4977 34.1889L17.4121 31.2857L14.4977 28.3825ZM5.75464 31.2857L14.4977 39.9953L23.2408 31.2857L14.4977 22.5761L5.75464 31.2857Z" fill="#FFC540"/>
<path d="M3.16748 22.9015L6.08185 19.9983L17.4155 31.2885L14.5011 34.1917L3.16748 22.9015Z" fill="#66B1F1"/>
</g>
<path d="M37.54 23.448V18.822H38.224C38.644 18.822 38.998 18.594 39.286 18.138C39.574 17.682 39.802 16.944 39.97 15.924C40.138 14.904 40.246 13.554 40.294 11.874L40.402 8.22H48.916V18.822H50.608V23.448H48.43V21H39.718V23.448H37.54ZM41.194 18.822H46.45V10.398H42.652L42.616 12.198C42.556 14.07 42.424 15.534 42.22 16.59C42.028 17.646 41.686 18.39 41.194 18.822ZM56.7111 21.18C55.6911 21.18 54.8091 20.958 54.0651 20.514C53.3331 20.07 52.7631 19.482 52.3551 18.75C51.9471 18.006 51.7431 17.202 51.7431 16.338C51.7431 15.45 51.9411 14.634 52.3371 13.89C52.7451 13.134 53.3211 12.534 54.0651 12.09C54.8091 11.634 55.6971 11.406 56.7291 11.406C57.7611 11.406 58.6431 11.634 59.3751 12.09C60.1071 12.534 60.6651 13.128 61.0491 13.872C61.4451 14.604 61.6431 15.396 61.6431 16.248C61.6431 16.56 61.6251 16.83 61.5891 17.058H54.2991C54.3591 17.79 54.6291 18.366 55.1091 18.786C55.6011 19.206 56.1651 19.416 56.8011 19.416C57.2811 19.416 57.7311 19.302 58.1511 19.074C58.5831 18.834 58.8771 18.522 59.0331 18.138L61.1031 18.714C60.7551 19.434 60.1971 20.028 59.4291 20.496C58.6611 20.952 57.7551 21.18 56.7111 21.18ZM54.2451 15.528H59.1771C59.1051 14.82 58.8351 14.25 58.3671 13.818C57.9111 13.374 57.3531 13.152 56.6931 13.152C56.0451 13.152 55.4871 13.374 55.0191 13.818C54.5631 14.25 54.3051 14.82 54.2451 15.528ZM65.3265 21V13.674H62.3385V11.568H70.7445V13.674H67.7385V21H65.3265ZM71.4486 18.21C71.4486 17.598 71.6166 17.064 71.9526 16.608C72.3006 16.14 72.7806 15.78 73.3926 15.528C74.0046 15.276 74.7066 15.15 75.4986 15.15C75.8946 15.15 76.2966 15.186 76.7046 15.258C77.1126 15.318 77.4666 15.408 77.7666 15.528V15.024C77.7666 14.424 77.5866 13.962 77.2266 13.638C76.8786 13.314 76.3566 13.152 75.6606 13.152C75.1446 13.152 74.6526 13.242 74.1846 13.422C73.7166 13.602 73.2246 13.866 72.7086 14.214L71.9346 12.63C72.5586 12.222 73.1946 11.916 73.8426 11.712C74.5026 11.508 75.1926 11.406 75.9126 11.406C77.2566 11.406 78.3006 11.742 79.0446 12.414C79.8006 13.086 80.1786 14.046 80.1786 15.294V18.3C80.1786 18.564 80.2206 18.75 80.3046 18.858C80.3886 18.954 80.5386 19.014 80.7546 19.038V21C80.5386 21.048 80.3406 21.078 80.1606 21.09C79.9926 21.114 79.8486 21.126 79.7286 21.126C79.2486 21.126 78.8826 21.018 78.6306 20.802C78.3786 20.586 78.2286 20.322 78.1806 20.01L78.1266 19.524C77.7066 20.064 77.1906 20.478 76.5786 20.766C75.9786 21.042 75.3606 21.18 74.7246 21.18C74.0886 21.18 73.5246 21.054 73.0326 20.802C72.5406 20.538 72.1506 20.184 71.8626 19.74C71.5866 19.284 71.4486 18.774 71.4486 18.21ZM77.3166 18.696C77.6166 18.408 77.7666 18.132 77.7666 17.868V16.914C77.1426 16.662 76.5126 16.536 75.8766 16.536C75.2406 16.536 74.7246 16.674 74.3286 16.95C73.9326 17.214 73.7346 17.568 73.7346 18.012C73.7346 18.372 73.8786 18.696 74.1666 18.984C74.4546 19.272 74.8686 19.416 75.4086 19.416C75.7686 19.416 76.1166 19.35 76.4526 19.218C76.8006 19.086 77.0886 18.912 77.3166 18.696ZM81.7846 21.126V18.984C82.1686 18.972 82.4986 18.846 82.7746 18.606C83.0626 18.366 83.2906 17.928 83.4586 17.292C83.6266 16.656 83.7346 15.738 83.7826 14.538L83.9086 11.568H90.9826V21H88.5706V13.674H86.0326L85.9966 14.772C85.9246 16.416 85.7266 17.7 85.4026 18.624C85.0906 19.536 84.6346 20.178 84.0346 20.55C83.4346 20.922 82.6846 21.114 81.7846 21.126ZM93.2096 21V11.586H95.6216V17.778L99.8516 11.568H102.048V21H99.6356V14.952L95.4596 21H93.2096ZM107.871 23.286V18.894H108.123C108.435 18.894 108.723 18.774 108.987 18.534C109.251 18.294 109.467 17.862 109.635 17.238C109.815 16.614 109.923 15.714 109.959 14.538L110.067 11.568H117.141V18.894H118.455V23.286H116.349V21H109.995V23.286H107.871ZM111.165 18.894H114.729V13.602H112.173L112.119 14.772C112.071 15.972 111.969 16.89 111.813 17.526C111.657 18.162 111.441 18.618 111.165 18.894ZM119.37 21.126V18.984C119.754 18.972 120.084 18.846 120.36 18.606C120.648 18.366 120.876 17.928 121.044 17.292C121.212 16.656 121.32 15.738 121.368 14.538L121.494 11.568H128.568V21H126.156V13.674H123.618L123.582 14.772C123.51 16.416 123.312 17.7 122.988 18.624C122.676 19.536 122.22 20.178 121.62 20.55C121.02 20.922 120.27 21.114 119.37 21.126ZM130.291 21L132.685 17.328C132.109 17.172 131.659 16.866 131.335 16.41C131.011 15.954 130.849 15.354 130.849 14.61C130.849 13.686 131.161 12.942 131.785 12.378C132.409 11.814 133.219 11.532 134.215 11.532H138.697V21H136.285V17.742H135.007L132.937 21H130.291ZM134.503 16.014H136.285V13.386H134.593C134.161 13.386 133.819 13.506 133.567 13.746C133.315 13.974 133.189 14.286 133.189 14.682C133.189 15.066 133.297 15.384 133.513 15.636C133.741 15.888 134.071 16.014 134.503 16.014ZM38.098 38V28.568H44.344V30.674H40.51V38H38.098ZM45.1149 35.21C45.1149 34.598 45.2829 34.064 45.6189 33.608C45.9669 33.14 46.4469 32.78 47.0589 32.528C47.6709 32.276 48.3729 32.15 49.1649 32.15C49.5609 32.15 49.9629 32.186 50.3709 32.258C50.7789 32.318 51.1329 32.408 51.4329 32.528V32.024C51.4329 31.424 51.2529 30.962 50.8929 30.638C50.5449 30.314 50.0229 30.152 49.3269 30.152C48.8109 30.152 48.3189 30.242 47.8509 30.422C47.3829 30.602 46.8909 30.866 46.3749 31.214L45.6009 29.63C46.2249 29.222 46.8609 28.916 47.5089 28.712C48.1689 28.508 48.8589 28.406 49.5789 28.406C50.9229 28.406 51.9669 28.742 52.7109 29.414C53.4669 30.086 53.8449 31.046 53.8449 32.294V35.3C53.8449 35.564 53.8869 35.75 53.9709 35.858C54.0549 35.954 54.2049 36.014 54.4209 36.038V38C54.2049 38.048 54.0069 38.078 53.8269 38.09C53.6589 38.114 53.5149 38.126 53.3949 38.126C52.9149 38.126 52.5489 38.018 52.2969 37.802C52.0449 37.586 51.8949 37.322 51.8469 37.01L51.7929 36.524C51.3729 37.064 50.8569 37.478 50.2449 37.766C49.6449 38.042 49.0269 38.18 48.3909 38.18C47.7549 38.18 47.1909 38.054 46.6989 37.802C46.2069 37.538 45.8169 37.184 45.5289 36.74C45.2529 36.284 45.1149 35.774 45.1149 35.21ZM50.9829 35.696C51.2829 35.408 51.4329 35.132 51.4329 34.868V33.914C50.8089 33.662 50.1789 33.536 49.5429 33.536C48.9069 33.536 48.3909 33.674 47.9949 33.95C47.5989 34.214 47.4009 34.568 47.4009 35.012C47.4009 35.372 47.5449 35.696 47.8329 35.984C48.1209 36.272 48.5349 36.416 49.0749 36.416C49.4349 36.416 49.7829 36.35 50.1189 36.218C50.4669 36.086 50.7549 35.912 50.9829 35.696ZM59.5008 38.144C58.4928 38.144 57.6468 37.964 56.9628 37.604C56.2908 37.244 55.7688 36.746 55.3968 36.11L57.3408 35.228C57.5448 35.54 57.8088 35.786 58.1328 35.966C58.4688 36.134 58.8828 36.218 59.3748 36.218C59.9388 36.218 60.3708 36.11 60.6708 35.894C60.9828 35.666 61.1388 35.372 61.1388 35.012C61.1388 34.688 61.0128 34.424 60.7608 34.22C60.5088 34.004 60.1368 33.896 59.6448 33.896H58.6728V32.402H59.6628C59.9988 32.402 60.2628 32.306 60.4548 32.114C60.6588 31.922 60.7608 31.67 60.7608 31.358C60.7608 31.046 60.6408 30.8 60.4008 30.62C60.1728 30.428 59.8068 30.332 59.3028 30.332C58.8828 30.332 58.5348 30.41 58.2588 30.566C57.9828 30.722 57.7608 30.956 57.5928 31.268L55.7748 30.296C56.1108 29.708 56.5908 29.246 57.2148 28.91C57.8508 28.574 58.5888 28.406 59.4288 28.406C60.0888 28.406 60.6768 28.508 61.1928 28.712C61.7208 28.916 62.1348 29.216 62.4348 29.612C62.7348 29.996 62.8848 30.47 62.8848 31.034C62.8848 31.442 62.7828 31.838 62.5788 32.222C62.3868 32.606 62.0688 32.888 61.6248 33.068C62.2008 33.236 62.6328 33.524 62.9208 33.932C63.2208 34.34 63.3708 34.82 63.3708 35.372C63.3708 35.972 63.2028 36.482 62.8668 36.902C62.5308 37.31 62.0688 37.622 61.4808 37.838C60.9048 38.042 60.2448 38.144 59.5008 38.144ZM69.4565 38.18C68.4245 38.18 67.5365 37.958 66.7925 37.514C66.0605 37.058 65.4965 36.458 65.1005 35.714C64.7045 34.97 64.5065 34.166 64.5065 33.302C64.5065 32.426 64.7045 31.616 65.1005 30.872C65.5085 30.128 66.0785 29.534 66.8105 29.09C67.5545 28.634 68.4365 28.406 69.4565 28.406C70.4765 28.406 71.3525 28.634 72.0845 29.09C72.8285 29.534 73.3985 30.128 73.7945 30.872C74.1905 31.616 74.3885 32.426 74.3885 33.302C74.3885 34.166 74.1905 34.97 73.7945 35.714C73.3985 36.458 72.8285 37.058 72.0845 37.514C71.3525 37.958 70.4765 38.18 69.4565 38.18ZM66.9905 33.302C66.9905 33.854 67.0985 34.346 67.3145 34.778C67.5305 35.198 67.8245 35.528 68.1965 35.768C68.5685 36.008 68.9885 36.128 69.4565 36.128C69.9125 36.128 70.3265 36.008 70.6985 35.768C71.0705 35.516 71.3645 35.18 71.5805 34.76C71.8085 34.328 71.9225 33.836 71.9225 33.284C71.9225 32.744 71.8085 32.264 71.5805 31.844C71.3645 31.412 71.0705 31.076 70.6985 30.836C70.3265 30.584 69.9125 30.458 69.4565 30.458C68.9885 30.458 68.5685 30.584 68.1965 30.836C67.8245 31.076 67.5305 31.412 67.3145 31.844C67.0985 32.264 66.9905 32.75 66.9905 33.302ZM76.0525 38V28.568H81.3085C81.9565 28.568 82.4785 28.676 82.8745 28.892C83.2825 29.108 83.5825 29.39 83.7745 29.738C83.9665 30.086 84.0625 30.458 84.0625 30.854C84.0625 31.382 83.9425 31.844 83.7025 32.24C83.4625 32.636 83.1025 32.942 82.6225 33.158C83.1745 33.302 83.6245 33.566 83.9725 33.95C84.3205 34.334 84.4945 34.832 84.4945 35.444C84.4945 36.332 84.1825 36.98 83.5585 37.388C82.9465 37.796 82.1125 38 81.0565 38H76.0525ZM78.3385 32.492H80.6965C81.0205 32.492 81.2845 32.378 81.4885 32.15C81.6925 31.91 81.7945 31.628 81.7945 31.304C81.7945 30.992 81.6925 30.734 81.4885 30.53C81.2965 30.314 81.0385 30.206 80.7145 30.206H78.3385V32.492ZM78.3385 36.362H80.9845C81.3205 36.362 81.5965 36.248 81.8125 36.02C82.0405 35.792 82.1545 35.51 82.1545 35.174C82.1545 34.838 82.0465 34.562 81.8305 34.346C81.6145 34.118 81.3385 34.004 81.0025 34.004H78.3385V36.362ZM86.2839 38V28.568H88.6959V31.538H90.3519C91.4919 31.538 92.3619 31.826 92.9619 32.402C93.5619 32.978 93.8619 33.74 93.8619 34.688C93.8619 35.66 93.5739 36.458 92.9979 37.082C92.4339 37.694 91.6059 38 90.5139 38H86.2839ZM95.3379 38V28.586H97.7499V38H95.3379ZM88.6959 36.164H90.1359C90.6279 36.164 90.9879 36.026 91.2159 35.75C91.4439 35.462 91.5579 35.114 91.5579 34.706C91.5579 34.31 91.4499 33.98 91.2339 33.716C91.0179 33.44 90.6459 33.302 90.1179 33.302H88.6959V36.164ZM101.544 28.568L103.524 31.52L103.668 31.844L103.848 31.52L105.81 28.568H108.348L105.072 33.266L108.402 38H105.864L103.83 35.066L103.668 34.76L103.524 35.066L101.508 38H98.9696L102.3 33.32L99.0236 28.568H101.544ZM113.954 38V28.568H116.366V32.132H117.176L119.732 28.568H122.36L119.012 33.122L122.72 38H119.966L117.14 34.256H116.366V38H113.954ZM128.12 38.18C127.088 38.18 126.2 37.958 125.456 37.514C124.724 37.058 124.16 36.458 123.764 35.714C123.368 34.97 123.17 34.166 123.17 33.302C123.17 32.426 123.368 31.616 123.764 30.872C124.172 30.128 124.742 29.534 125.474 29.09C126.218 28.634 127.1 28.406 128.12 28.406C129.14 28.406 130.016 28.634 130.748 29.09C131.492 29.534 132.062 30.128 132.458 30.872C132.854 31.616 133.052 32.426 133.052 33.302C133.052 34.166 132.854 34.97 132.458 35.714C132.062 36.458 131.492 37.058 130.748 37.514C130.016 37.958 129.14 38.18 128.12 38.18ZM125.654 33.302C125.654 33.854 125.762 34.346 125.978 34.778C126.194 35.198 126.488 35.528 126.86 35.768C127.232 36.008 127.652 36.128 128.12 36.128C128.576 36.128 128.99 36.008 129.362 35.768C129.734 35.516 130.028 35.18 130.244 34.76C130.472 34.328 130.586 33.836 130.586 33.284C130.586 32.744 130.472 32.264 130.244 31.844C130.028 31.412 129.734 31.076 129.362 30.836C128.99 30.584 128.576 30.458 128.12 30.458C127.652 30.458 127.232 30.584 126.86 30.836C126.488 31.076 126.194 31.412 125.978 31.844C125.762 32.264 125.654 32.75 125.654 33.302ZM136.894 38V30.674H133.906V28.568H142.312V30.674H139.306V38H136.894ZM143.015 38.126V35.984C143.399 35.972 143.729 35.846 144.005 35.606C144.293 35.366 144.521 34.928 144.689 34.292C144.857 33.656 144.965 32.738 145.013 31.538L145.139 28.568H152.213V38H149.801V30.674H147.263L147.227 31.772C147.155 33.416 146.957 34.7 146.633 35.624C146.321 36.536 145.865 37.178 145.265 37.55C144.665 37.922 143.915 38.114 143.015 38.126ZM158.796 38.18C157.764 38.18 156.876 37.958 156.132 37.514C155.4 37.058 154.836 36.458 154.44 35.714C154.044 34.97 153.846 34.166 153.846 33.302C153.846 32.426 154.044 31.616 154.44 30.872C154.848 30.128 155.418 29.534 156.15 29.09C156.894 28.634 157.776 28.406 158.796 28.406C159.816 28.406 160.692 28.634 161.424 29.09C162.168 29.534 162.738 30.128 163.134 30.872C163.53 31.616 163.728 32.426 163.728 33.302C163.728 34.166 163.53 34.97 163.134 35.714C162.738 36.458 162.168 37.058 161.424 37.514C160.692 37.958 159.816 38.18 158.796 38.18ZM156.33 33.302C156.33 33.854 156.438 34.346 156.654 34.778C156.87 35.198 157.164 35.528 157.536 35.768C157.908 36.008 158.328 36.128 158.796 36.128C159.252 36.128 159.666 36.008 160.038 35.768C160.41 35.516 160.704 35.18 160.92 34.76C161.148 34.328 161.262 33.836 161.262 33.284C161.262 32.744 161.148 32.264 160.92 31.844C160.704 31.412 160.41 31.076 160.038 30.836C159.666 30.584 159.252 30.458 158.796 30.458C158.328 30.458 157.908 30.584 157.536 30.836C157.164 31.076 156.87 31.412 156.654 31.844C156.438 32.264 156.33 32.75 156.33 33.302ZM165.392 38V28.568H170.648C171.296 28.568 171.818 28.676 172.214 28.892C172.622 29.108 172.922 29.39 173.114 29.738C173.306 30.086 173.402 30.458 173.402 30.854C173.402 31.382 173.282 31.844 173.042 32.24C172.802 32.636 172.442 32.942 171.962 33.158C172.514 33.302 172.964 33.566 173.312 33.95C173.66 34.334 173.834 34.832 173.834 35.444C173.834 36.332 173.522 36.98 172.898 37.388C172.286 37.796 171.452 38 170.396 38H165.392ZM167.678 32.492H170.036C170.36 32.492 170.624 32.378 170.828 32.15C171.032 31.91 171.134 31.628 171.134 31.304C171.134 30.992 171.032 30.734 170.828 30.53C170.636 30.314 170.378 30.206 170.054 30.206H167.678V32.492ZM167.678 36.362H170.324C170.66 36.362 170.936 36.248 171.152 36.02C171.38 35.792 171.494 35.51 171.494 35.174C171.494 34.838 171.386 34.562 171.17 34.346C170.954 34.118 170.678 34.004 170.342 34.004H167.678V36.362Z" fill="#4E4C4C"/>
<defs>
<clipPath id="clip0">
<rect width="29" height="40" fill="white"/>
</clipPath>
</defs>
</svg>
