<svg width="23" height="19" viewBox="0 0 23 19" fill="none" xmlns="http://www.w3.org/2000/svg">
<path fill-rule="evenodd" clip-rule="evenodd" d="M14.3419 13.8745C16.6416 13.8745 18.4736 12.0213 18.4736 9.77519C18.4736 7.52906 16.6416 5.67592 14.3419 5.67592C12.0423 5.67592 10.2102 7.52906 10.2102 9.77519C10.2102 12.0213 12.0423 13.8745 14.3419 13.8745ZM14.3419 15.6613C17.6034 15.6613 20.2474 13.026 20.2474 9.77519C20.2474 6.52437 17.6034 3.88906 14.3419 3.88906C11.0804 3.88906 8.43643 6.52437 8.43643 9.77519C8.43643 13.026 11.0804 15.6613 14.3419 15.6613Z" fill="#4E4C4C"/>
<path d="M0 0.595621C0 0.266668 0.264721 0 0.591271 0H15.373C15.6996 0 15.9643 0.266668 15.9643 0.595621V1.19124C15.9643 1.52019 15.6996 1.78686 15.373 1.78686H0.59127C0.264721 1.78686 0 1.52019 0 1.19124V0.595621Z" fill="#4E4C4C"/>
<path d="M0 7.74307C0 7.41412 0.264721 7.14745 0.591271 7.14745H5.91271C6.23926 7.14745 6.50398 7.41412 6.50398 7.74307V8.33869C6.50398 8.66764 6.23926 8.93431 5.91271 8.93431H0.591271C0.264721 8.93431 0 8.66764 0 8.33869V7.74307Z" fill="#4E4C4C"/>
<path d="M0 14.8905C0 14.5616 0.264721 14.2949 0.591271 14.2949H7.09525C7.4218 14.2949 7.68652 14.5616 7.68652 14.8905V15.4861C7.68652 15.8151 7.4218 16.0818 7.09525 16.0818H0.591271C0.264721 16.0818 0 15.8151 0 15.4861V14.8905Z" fill="#4E4C4C"/>
<path d="M17.3916 12.9292C17.6225 12.6966 17.9969 12.6966 18.2278 12.9292L22.8268 17.562C23.0577 17.7946 23.0577 18.1718 22.8268 18.4044L22.4087 18.8255C22.1778 19.0582 21.8035 19.0582 21.5725 18.8255L16.9735 14.1927C16.7426 13.9601 16.7426 13.583 16.9735 13.3504L17.3916 12.9292Z" fill="#4E4C4C"/>
</svg>
