<svg width="16" height="17" viewBox="0 0 16 17" fill="none" xmlns="http://www.w3.org/2000/svg">
<path d="M8 14.4333L11.3 11.1333C11.9526 10.4807 12.397 9.64914 12.577 8.74391C12.7571 7.83867 12.6646 6.90039 12.3114 6.04769C11.9582 5.195 11.36 4.46619 10.5926 3.95343C9.82519 3.44068 8.92296 3.16699 8 3.16699C7.07704 3.16699 6.17481 3.44068 5.40739 3.95343C4.63997 4.46619 4.04183 5.195 3.68861 6.04769C3.33539 6.90039 3.24294 7.83867 3.42297 8.74391C3.603 9.64914 4.04741 10.4807 4.7 11.1333L8 14.4333ZM8 16.3187L3.75734 12.076C2.91823 11.2369 2.34679 10.1678 2.11529 9.00389C1.88378 7.84 2.0026 6.63361 2.45673 5.53726C2.91086 4.4409 3.6799 3.50384 4.66659 2.84455C5.65328 2.18527 6.81332 1.83337 8 1.83337C9.18669 1.83337 10.3467 2.18527 11.3334 2.84455C12.3201 3.50384 13.0891 4.4409 13.5433 5.53726C13.9974 6.63361 14.1162 7.84 13.8847 9.00389C13.6532 10.1678 13.0818 11.2369 12.2427 12.076L8 16.3187ZM8 9.16666C8.35362 9.16666 8.69276 9.02618 8.94281 8.77613C9.19286 8.52608 9.33334 8.18694 9.33334 7.83332C9.33334 7.4797 9.19286 7.14056 8.94281 6.89051C8.69276 6.64046 8.35362 6.49999 8 6.49999C7.64638 6.49999 7.30724 6.64046 7.05719 6.89051C6.80715 7.14056 6.66667 7.4797 6.66667 7.83332C6.66667 8.18694 6.80715 8.52608 7.05719 8.77613C7.30724 9.02618 7.64638 9.16666 8 9.16666ZM8 10.5C7.29276 10.5 6.61448 10.219 6.11438 9.71894C5.61429 9.21884 5.33334 8.54057 5.33334 7.83332C5.33334 7.12608 5.61429 6.4478 6.11438 5.9477C6.61448 5.44761 7.29276 5.16666 8 5.16666C8.70725 5.16666 9.38552 5.44761 9.88562 5.9477C10.3857 6.4478 10.6667 7.12608 10.6667 7.83332C10.6667 8.54057 10.3857 9.21884 9.88562 9.71894C9.38552 10.219 8.70725 10.5 8 10.5Z" fill="white"/>
</svg>
