<svg width="70" height="48" viewBox="0 0 70 48" fill="none" xmlns="http://www.w3.org/2000/svg">
<rect x="0.5" y="0.5" width="69" height="47" rx="5.5" fill="white" stroke="#D9D9D9"/>
<path fill-rule="evenodd" clip-rule="evenodd" d="M35.3948 34.7619C33.0116 36.8184 29.9203 38.0599 26.5423 38.0599C19.005 38.0599 12.8948 31.8788 12.8948 24.254C12.8948 16.6291 19.005 10.448 26.5423 10.448C29.9203 10.448 33.0116 11.6895 35.3948 13.7461C37.7779 11.6895 40.8693 10.448 44.2472 10.448C51.7846 10.448 57.8948 16.6291 57.8948 24.254C57.8948 31.8788 51.7846 38.0599 44.2472 38.0599C40.8693 38.0599 37.7779 36.8184 35.3948 34.7619Z" fill="#ED0006"/>
<path fill-rule="evenodd" clip-rule="evenodd" d="M35.3948 34.7619C38.3292 32.2296 40.1899 28.4616 40.1899 24.254C40.1899 20.0463 38.3292 16.2783 35.3948 13.7461C37.7779 11.6895 40.8693 10.448 44.2472 10.448C51.7846 10.448 57.8948 16.6291 57.8948 24.254C57.8948 31.8788 51.7846 38.0599 44.2472 38.0599C40.8693 38.0599 37.7779 36.8184 35.3948 34.7619Z" fill="#F9A000"/>
<path fill-rule="evenodd" clip-rule="evenodd" d="M35.3949 13.7461C38.3292 16.2784 40.1899 20.0463 40.1899 24.254C40.1899 28.4616 38.3292 32.2295 35.3949 34.7618C32.4605 32.2295 30.5999 28.4616 30.5999 24.254C30.5999 20.0463 32.4605 16.2784 35.3949 13.7461Z" fill="#FF5E00"/>
</svg>
