<svg width="20" height="20" viewBox="0 0 20 20" fill="none" xmlns="http://www.w3.org/2000/svg">
<path d="M17.9998 13.9358V16.3358C18.0007 16.5586 17.9551 16.7792 17.8659 16.9833C17.7766 17.1874 17.6457 17.3707 17.4815 17.5213C17.3173 17.6719 17.1235 17.7866 16.9124 17.858C16.7014 17.9294 16.4777 17.9559 16.2558 17.9358C13.7941 17.6683 11.4294 16.8271 9.35185 15.4798C7.41891 14.2516 5.78012 12.6128 4.55185 10.6798C3.19983 8.5928 2.35844 6.21663 2.09585 3.74383C2.07586 3.52261 2.10215 3.29964 2.17305 3.08913C2.24395 2.87862 2.35791 2.68518 2.50766 2.52113C2.65742 2.35708 2.83969 2.226 3.04288 2.13625C3.24607 2.0465 3.46572 2.00004 3.68785 1.99983H6.08785C6.47609 1.99601 6.85248 2.1335 7.14686 2.38666C7.44123 2.63982 7.63351 2.99139 7.68785 3.37583C7.78915 4.14389 7.97701 4.89801 8.24785 5.62383C8.35548 5.91017 8.37878 6.22136 8.31497 6.52054C8.25117 6.81971 8.10294 7.09432 7.88785 7.31183L6.87185 8.32783C8.01069 10.3307 9.66901 11.989 11.6718 13.1278L12.6878 12.1118C12.9054 11.8967 13.18 11.7485 13.4791 11.6847C13.7783 11.6209 14.0895 11.6442 14.3758 11.7518C15.1017 12.0227 15.8558 12.2105 16.6238 12.3118C17.0125 12.3667 17.3674 12.5624 17.6211 12.8618C17.8748 13.1613 18.0096 13.5435 17.9998 13.9358Z" stroke="#4E4C4C" stroke-width="1.36" stroke-linecap="round" stroke-linejoin="round"/>
</svg>
