<svg width="49" height="48" viewBox="0 0 49 48" fill="none" xmlns="http://www.w3.org/2000/svg">
<path d="M42.7207 6.99414V18.9941H30.7207" stroke="#1C629E" stroke-width="4" stroke-linecap="round" stroke-linejoin="round"/>
<path d="M41.4799 30C40.1798 33.6799 37.719 36.8375 34.4682 38.997C31.2174 41.1566 27.3528 42.2011 23.4567 41.9732C19.5606 41.7453 15.8442 40.2573 12.8674 37.7334C9.89059 35.2095 7.81472 31.7865 6.95261 27.9801C6.09049 24.1738 6.48883 20.1904 8.0876 16.6302C9.68637 13.0699 12.399 10.1258 15.8166 8.24131C19.2342 6.35686 23.1717 5.63423 27.0358 6.18231C27.9781 6.31598 28.9036 6.52345 29.8045 6.80082C35.3787 8.51706 38.907 13.6946 42.2208 18.4941V18.4941" stroke="#1C629E" stroke-width="4" stroke-linecap="round" stroke-linejoin="round"/>
</svg>
