<?xml version="1.0" encoding="iso-8859-1"?><svg viewBox="0 0 502.66 502.66" xmlns="http://www.w3.org/2000/svg" xmlns:xlink="http://www.w3.org/1999/xlink"><style>:root>svg{display:none}:root>svg:target{display:block}</style><svg viewBox="0 0 502.664 502.664" id="icon" xmlns="http://www.w3.org/2000/svg"><g fill="#010002"><path d="M153.821 358.226L0 274.337v-46.463l153.821-83.414v54.574L46.636 250.523l107.185 53.431v54.272zM180.094 387.584L282.103 115.08h32.227L212.084 387.584h-31.99zM348.843 358.226v-54.272l107.164-52.999-107.164-52.59v-53.927l153.821 83.522v46.183l-153.821 84.083z"/></g></svg><svg fill="none" viewBox="0 0 23 19" id="main-title" xmlns="http://www.w3.org/2000/svg"><path fill-rule="evenodd" clip-rule="evenodd" d="M14.342 13.874c2.3 0 4.132-1.853 4.132-4.099 0-2.246-1.832-4.1-4.132-4.1s-4.132 1.854-4.132 4.1c0 2.246 1.832 4.1 4.132 4.1zm0 1.787c3.261 0 5.905-2.635 5.905-5.886 0-3.25-2.644-5.886-5.905-5.886-3.262 0-5.906 2.635-5.906 5.886 0 3.251 2.644 5.886 5.906 5.886z" fill="#4E4C4C"/><path d="M0 .596C0 .266.265 0 .591 0h14.782c.327 0 .591.267.591.596v.595a.593.593 0 01-.591.596H.591A.593.593 0 010 1.19V.596zM0 7.743c0-.329.265-.596.591-.596h5.322c.326 0 .591.267.591.596v.596a.593.593 0 01-.591.595H.59A.593.593 0 010 8.34v-.596zM0 14.89c0-.328.265-.595.591-.595h6.504c.327 0 .592.267.592.595v.596a.593.593 0 01-.592.596H.591A.593.593 0 010 15.486v-.596zM17.392 12.93a.588.588 0 01.836 0l4.599 4.632c.23.233.23.61 0 .842l-.418.422a.588.588 0 01-.836 0l-4.6-4.633a.599.599 0 010-.843l.419-.42z" fill="#4E4C4C"/></svg></svg>